<mxfile host="Electron" modified="2024-09-24T15:24:28.880Z" agent="Mozilla/5.0 (Windows NT 10.0; Win64; x64) AppleWebKit/537.36 (KHTML, like Gecko) draw.io/22.1.16 Chrome/120.0.6099.109 Electron/28.1.0 Safari/537.36" etag="J1fPNaOo0YVB_foPBjmu" version="22.1.16" type="device">
  <diagram name="Page-1" id="e7e014a7-5840-1c2e-5031-d8a46d1fe8dd">
    <mxGraphModel dx="1235" dy="1670" grid="1" gridSize="10" guides="1" tooltips="1" connect="1" arrows="1" fold="1" page="1" pageScale="1" pageWidth="1169" pageHeight="826" background="none" math="0" shadow="0">
      <root>
        <mxCell id="0" />
        <mxCell id="1" parent="0" />
        <mxCell id="IdoW4FWgJUClRfMWJHNu-45" value="main" style="swimlane;fontStyle=1;align=center;verticalAlign=top;childLayout=stackLayout;horizontal=1;startSize=26;horizontalStack=0;resizeParent=1;resizeParentMax=0;resizeLast=0;collapsible=1;marginBottom=0;whiteSpace=wrap;html=1;" vertex="1" parent="1">
          <mxGeometry x="350" y="120" width="260" height="190" as="geometry" />
        </mxCell>
        <mxCell id="IdoW4FWgJUClRfMWJHNu-46" value="+ port: int" style="text;strokeColor=none;fillColor=none;align=left;verticalAlign=top;spacingLeft=4;spacingRight=4;overflow=hidden;rotatable=0;points=[[0,0.5],[1,0.5]];portConstraint=eastwest;whiteSpace=wrap;html=1;" vertex="1" parent="IdoW4FWgJUClRfMWJHNu-45">
          <mxGeometry y="26" width="260" height="26" as="geometry" />
        </mxCell>
        <mxCell id="IdoW4FWgJUClRfMWJHNu-53" style="text;strokeColor=none;fillColor=none;align=left;verticalAlign=top;spacingLeft=4;spacingRight=4;overflow=hidden;rotatable=0;points=[[0,0.5],[1,0.5]];portConstraint=eastwest;whiteSpace=wrap;html=1;" vertex="1" parent="IdoW4FWgJUClRfMWJHNu-45">
          <mxGeometry y="52" width="260" height="26" as="geometry" />
        </mxCell>
        <mxCell id="IdoW4FWgJUClRfMWJHNu-47" value="" style="line;strokeWidth=1;fillColor=none;align=left;verticalAlign=middle;spacingTop=-1;spacingLeft=3;spacingRight=3;rotatable=0;labelPosition=right;points=[];portConstraint=eastwest;strokeColor=inherit;" vertex="1" parent="IdoW4FWgJUClRfMWJHNu-45">
          <mxGeometry y="78" width="260" height="8" as="geometry" />
        </mxCell>
        <mxCell id="IdoW4FWgJUClRfMWJHNu-48" value="public start(): void" style="text;strokeColor=none;fillColor=none;align=left;verticalAlign=top;spacingLeft=4;spacingRight=4;overflow=hidden;rotatable=0;points=[[0,0.5],[1,0.5]];portConstraint=eastwest;whiteSpace=wrap;html=1;" vertex="1" parent="IdoW4FWgJUClRfMWJHNu-45">
          <mxGeometry y="86" width="260" height="26" as="geometry" />
        </mxCell>
        <mxCell id="IdoW4FWgJUClRfMWJHNu-50" value="stop(): void" style="text;strokeColor=none;fillColor=none;align=left;verticalAlign=top;spacingLeft=4;spacingRight=4;overflow=hidden;rotatable=0;points=[[0,0.5],[1,0.5]];portConstraint=eastwest;whiteSpace=wrap;html=1;" vertex="1" parent="IdoW4FWgJUClRfMWJHNu-45">
          <mxGeometry y="112" width="260" height="26" as="geometry" />
        </mxCell>
        <mxCell id="IdoW4FWgJUClRfMWJHNu-52" value="handle_request(request: Request): Response" style="text;strokeColor=none;fillColor=none;align=left;verticalAlign=top;spacingLeft=4;spacingRight=4;overflow=hidden;rotatable=0;points=[[0,0.5],[1,0.5]];portConstraint=eastwest;whiteSpace=wrap;html=1;" vertex="1" parent="IdoW4FWgJUClRfMWJHNu-45">
          <mxGeometry y="138" width="260" height="26" as="geometry" />
        </mxCell>
        <mxCell id="IdoW4FWgJUClRfMWJHNu-51" style="text;strokeColor=none;fillColor=none;align=left;verticalAlign=top;spacingLeft=4;spacingRight=4;overflow=hidden;rotatable=0;points=[[0,0.5],[1,0.5]];portConstraint=eastwest;whiteSpace=wrap;html=1;" vertex="1" parent="IdoW4FWgJUClRfMWJHNu-45">
          <mxGeometry y="164" width="260" height="26" as="geometry" />
        </mxCell>
        <mxCell id="IdoW4FWgJUClRfMWJHNu-49" value="&lt;b style=&quot;font-size: 35px;&quot;&gt;Server&lt;/b&gt;" style="text;html=1;align=center;verticalAlign=middle;resizable=0;points=[];autosize=1;strokeColor=none;fillColor=none;fontSize=35;fontStyle=4" vertex="1" parent="1">
          <mxGeometry x="415" y="53" width="130" height="60" as="geometry" />
        </mxCell>
        <mxCell id="IdoW4FWgJUClRfMWJHNu-66" value="ClientHandler" style="swimlane;fontStyle=1;align=center;verticalAlign=top;childLayout=stackLayout;horizontal=1;startSize=26;horizontalStack=0;resizeParent=1;resizeParentMax=0;resizeLast=0;collapsible=1;marginBottom=0;whiteSpace=wrap;html=1;" vertex="1" parent="1">
          <mxGeometry x="809" y="258" width="360" height="138" as="geometry" />
        </mxCell>
        <mxCell id="IdoW4FWgJUClRfMWJHNu-67" value="+ Protocol" style="text;strokeColor=none;fillColor=none;align=left;verticalAlign=top;spacingLeft=4;spacingRight=4;overflow=hidden;rotatable=0;points=[[0,0.5],[1,0.5]];portConstraint=eastwest;whiteSpace=wrap;html=1;" vertex="1" parent="IdoW4FWgJUClRfMWJHNu-66">
          <mxGeometry y="26" width="360" height="26" as="geometry" />
        </mxCell>
        <mxCell id="IdoW4FWgJUClRfMWJHNu-78" value="+ Crypto" style="text;strokeColor=none;fillColor=none;align=left;verticalAlign=top;spacingLeft=4;spacingRight=4;overflow=hidden;rotatable=0;points=[[0,0.5],[1,0.5]];portConstraint=eastwest;whiteSpace=wrap;html=1;" vertex="1" parent="IdoW4FWgJUClRfMWJHNu-66">
          <mxGeometry y="52" width="360" height="26" as="geometry" />
        </mxCell>
        <mxCell id="IdoW4FWgJUClRfMWJHNu-79" value="+ Parser" style="text;strokeColor=none;fillColor=none;align=left;verticalAlign=top;spacingLeft=4;spacingRight=4;overflow=hidden;rotatable=0;points=[[0,0.5],[1,0.5]];portConstraint=eastwest;whiteSpace=wrap;html=1;" vertex="1" parent="IdoW4FWgJUClRfMWJHNu-66">
          <mxGeometry y="78" width="360" height="26" as="geometry" />
        </mxCell>
        <mxCell id="IdoW4FWgJUClRfMWJHNu-68" value="" style="line;strokeWidth=1;fillColor=none;align=left;verticalAlign=middle;spacingTop=-1;spacingLeft=3;spacingRight=3;rotatable=0;labelPosition=right;points=[];portConstraint=eastwest;strokeColor=inherit;" vertex="1" parent="IdoW4FWgJUClRfMWJHNu-66">
          <mxGeometry y="104" width="360" height="8" as="geometry" />
        </mxCell>
        <mxCell id="IdoW4FWgJUClRfMWJHNu-69" value="+ method(type): type" style="text;strokeColor=none;fillColor=none;align=left;verticalAlign=top;spacingLeft=4;spacingRight=4;overflow=hidden;rotatable=0;points=[[0,0.5],[1,0.5]];portConstraint=eastwest;whiteSpace=wrap;html=1;" vertex="1" parent="IdoW4FWgJUClRfMWJHNu-66">
          <mxGeometry y="112" width="360" height="26" as="geometry" />
        </mxCell>
        <mxCell id="IdoW4FWgJUClRfMWJHNu-73" style="rounded=0;orthogonalLoop=1;jettySize=auto;html=1;entryX=-0.005;entryY=0.085;entryDx=0;entryDy=0;entryPerimeter=0;exitX=1;exitY=0.5;exitDx=0;exitDy=0;" edge="1" parent="1" source="IdoW4FWgJUClRfMWJHNu-52" target="IdoW4FWgJUClRfMWJHNu-66">
          <mxGeometry relative="1" as="geometry" />
        </mxCell>
        <mxCell id="IdoW4FWgJUClRfMWJHNu-109" style="edgeStyle=orthogonalEdgeStyle;rounded=0;orthogonalLoop=1;jettySize=auto;html=1;" edge="1" parent="1" source="IdoW4FWgJUClRfMWJHNu-83">
          <mxGeometry relative="1" as="geometry">
            <mxPoint x="1065" y="-70" as="targetPoint" />
          </mxGeometry>
        </mxCell>
        <mxCell id="IdoW4FWgJUClRfMWJHNu-83" value="Request" style="rounded=0;whiteSpace=wrap;html=1;" vertex="1" parent="1">
          <mxGeometry x="900" y="-180" width="330" height="40" as="geometry" />
        </mxCell>
        <mxCell id="IdoW4FWgJUClRfMWJHNu-84" value="" style="strokeWidth=2;html=1;shape=mxgraph.flowchart.annotation_2;align=left;labelPosition=right;pointerEvents=1;rotation=90;" vertex="1" parent="1">
          <mxGeometry x="1040" y="-380" width="50" height="360" as="geometry" />
        </mxCell>
        <mxCell id="IdoW4FWgJUClRfMWJHNu-85" value="17 Byte" style="text;html=1;align=center;verticalAlign=middle;resizable=0;points=[];autosize=1;strokeColor=none;fillColor=none;" vertex="1" parent="1">
          <mxGeometry x="1035" y="-250" width="60" height="30" as="geometry" />
        </mxCell>
        <mxCell id="IdoW4FWgJUClRfMWJHNu-87" value="" style="shape=table;startSize=0;container=1;collapsible=0;childLayout=tableLayout;fontSize=16;" vertex="1" parent="1">
          <mxGeometry x="900" y="-50" width="330" height="40" as="geometry" />
        </mxCell>
        <mxCell id="IdoW4FWgJUClRfMWJHNu-100" style="shape=tableRow;horizontal=0;startSize=0;swimlaneHead=0;swimlaneBody=0;strokeColor=inherit;top=0;left=0;bottom=0;right=0;collapsible=0;dropTarget=0;fillColor=none;points=[[0,0.5],[1,0.5]];portConstraint=eastwest;fontSize=16;" vertex="1" parent="IdoW4FWgJUClRfMWJHNu-87">
          <mxGeometry width="330" height="40" as="geometry" />
        </mxCell>
        <mxCell id="IdoW4FWgJUClRfMWJHNu-101" value="10&lt;b&gt;B&lt;/b&gt;" style="shape=partialRectangle;html=1;whiteSpace=wrap;connectable=0;strokeColor=inherit;overflow=hidden;fillColor=none;top=0;left=0;bottom=0;right=0;pointerEvents=1;fontSize=16;" vertex="1" parent="IdoW4FWgJUClRfMWJHNu-100">
          <mxGeometry width="200" height="40" as="geometry">
            <mxRectangle width="200" height="40" as="alternateBounds" />
          </mxGeometry>
        </mxCell>
        <mxCell id="IdoW4FWgJUClRfMWJHNu-102" value="1B" style="shape=partialRectangle;html=1;whiteSpace=wrap;connectable=0;strokeColor=inherit;overflow=hidden;fillColor=none;top=0;left=0;bottom=0;right=0;pointerEvents=1;fontSize=16;" vertex="1" parent="IdoW4FWgJUClRfMWJHNu-100">
          <mxGeometry x="200" width="28" height="40" as="geometry">
            <mxRectangle width="28" height="40" as="alternateBounds" />
          </mxGeometry>
        </mxCell>
        <mxCell id="IdoW4FWgJUClRfMWJHNu-103" value="2B" style="shape=partialRectangle;html=1;whiteSpace=wrap;connectable=0;strokeColor=inherit;overflow=hidden;fillColor=none;top=0;left=0;bottom=0;right=0;pointerEvents=1;fontSize=16;" vertex="1" parent="IdoW4FWgJUClRfMWJHNu-100">
          <mxGeometry x="228" width="42" height="40" as="geometry">
            <mxRectangle width="42" height="40" as="alternateBounds" />
          </mxGeometry>
        </mxCell>
        <mxCell id="IdoW4FWgJUClRfMWJHNu-108" value="4B" style="shape=partialRectangle;html=1;whiteSpace=wrap;connectable=0;strokeColor=inherit;overflow=hidden;fillColor=none;top=0;left=0;bottom=0;right=0;pointerEvents=1;fontSize=16;" vertex="1" parent="IdoW4FWgJUClRfMWJHNu-100">
          <mxGeometry x="270" width="60" height="40" as="geometry">
            <mxRectangle width="60" height="40" as="alternateBounds" />
          </mxGeometry>
        </mxCell>
        <mxCell id="IdoW4FWgJUClRfMWJHNu-115" style="edgeStyle=orthogonalEdgeStyle;rounded=0;orthogonalLoop=1;jettySize=auto;html=1;" edge="1" parent="1" source="IdoW4FWgJUClRfMWJHNu-110" target="IdoW4FWgJUClRfMWJHNu-116">
          <mxGeometry relative="1" as="geometry">
            <mxPoint x="1030" y="100" as="targetPoint" />
          </mxGeometry>
        </mxCell>
        <mxCell id="IdoW4FWgJUClRfMWJHNu-110" value="DB" style="shape=datastore;whiteSpace=wrap;html=1;" vertex="1" parent="1">
          <mxGeometry x="840" y="60" width="90" height="80" as="geometry" />
        </mxCell>
        <mxCell id="IdoW4FWgJUClRfMWJHNu-114" style="edgeStyle=orthogonalEdgeStyle;rounded=0;orthogonalLoop=1;jettySize=auto;html=1;" edge="1" parent="1" source="IdoW4FWgJUClRfMWJHNu-100" target="IdoW4FWgJUClRfMWJHNu-110">
          <mxGeometry relative="1" as="geometry">
            <Array as="points">
              <mxPoint x="880" y="-30" />
            </Array>
          </mxGeometry>
        </mxCell>
        <mxCell id="IdoW4FWgJUClRfMWJHNu-116" value="Client info" style="swimlane;fontStyle=0;childLayout=stackLayout;horizontal=1;startSize=30;horizontalStack=0;resizeParent=1;resizeParentMax=0;resizeLast=0;collapsible=1;marginBottom=0;whiteSpace=wrap;html=1;" vertex="1" parent="1">
          <mxGeometry x="970" y="70" width="140" height="120" as="geometry" />
        </mxCell>
        <mxCell id="IdoW4FWgJUClRfMWJHNu-117" value="Item 1" style="text;strokeColor=none;fillColor=none;align=left;verticalAlign=middle;spacingLeft=4;spacingRight=4;overflow=hidden;points=[[0,0.5],[1,0.5]];portConstraint=eastwest;rotatable=0;whiteSpace=wrap;html=1;" vertex="1" parent="IdoW4FWgJUClRfMWJHNu-116">
          <mxGeometry y="30" width="140" height="30" as="geometry" />
        </mxCell>
        <mxCell id="IdoW4FWgJUClRfMWJHNu-118" value="Item 2" style="text;strokeColor=none;fillColor=none;align=left;verticalAlign=middle;spacingLeft=4;spacingRight=4;overflow=hidden;points=[[0,0.5],[1,0.5]];portConstraint=eastwest;rotatable=0;whiteSpace=wrap;html=1;" vertex="1" parent="IdoW4FWgJUClRfMWJHNu-116">
          <mxGeometry y="60" width="140" height="30" as="geometry" />
        </mxCell>
        <mxCell id="IdoW4FWgJUClRfMWJHNu-119" value="Item 3" style="text;strokeColor=none;fillColor=none;align=left;verticalAlign=middle;spacingLeft=4;spacingRight=4;overflow=hidden;points=[[0,0.5],[1,0.5]];portConstraint=eastwest;rotatable=0;whiteSpace=wrap;html=1;" vertex="1" parent="IdoW4FWgJUClRfMWJHNu-116">
          <mxGeometry y="90" width="140" height="30" as="geometry" />
        </mxCell>
      </root>
    </mxGraphModel>
  </diagram>
</mxfile>
